<mxfile host="app.diagrams.net" modified="2021-09-14T03:22:15.552Z" agent="5.0 (Macintosh; Intel Mac OS X 10_15_7) AppleWebKit/537.36 (KHTML, like Gecko) Chrome/93.0.4577.63 Safari/537.36" etag="Bw7FTDZS6A-b3qTQ0KrF" version="15.2.5" type="github">
  <diagram id="Qjd393ZUifUIavZXgA0_" name="Page-1">
    <mxGraphModel dx="1554" dy="841" grid="1" gridSize="10" guides="1" tooltips="1" connect="1" arrows="1" fold="1" page="1" pageScale="1" pageWidth="827" pageHeight="1169" math="0" shadow="0">
      <root>
        <mxCell id="0" />
        <mxCell id="1" parent="0" />
        <mxCell id="GdxqNVHEW5BC3TDvPoRH-1" value="" style="rounded=1;whiteSpace=wrap;html=1;" vertex="1" parent="1">
          <mxGeometry x="180" y="40" width="310" height="180" as="geometry" />
        </mxCell>
        <mxCell id="GdxqNVHEW5BC3TDvPoRH-3" style="edgeStyle=orthogonalEdgeStyle;rounded=0;orthogonalLoop=1;jettySize=auto;html=1;entryX=0.5;entryY=1;entryDx=0;entryDy=0;" edge="1" parent="1" source="GdxqNVHEW5BC3TDvPoRH-2" target="GdxqNVHEW5BC3TDvPoRH-1">
          <mxGeometry relative="1" as="geometry" />
        </mxCell>
        <mxCell id="GdxqNVHEW5BC3TDvPoRH-2" value="" style="whiteSpace=wrap;html=1;aspect=fixed;" vertex="1" parent="1">
          <mxGeometry x="290" y="340" width="90" height="90" as="geometry" />
        </mxCell>
      </root>
    </mxGraphModel>
  </diagram>
</mxfile>
